<?xml version="1.0" standalone="no"?>
<!DOCTYPE svg PUBLIC "-//W3C//DTD SVG 20010904//EN"
 "http://www.w3.org/TR/2001/REC-SVG-20010904/DTD/svg10.dtd">
<svg version="1.0" xmlns="http://www.w3.org/2000/svg"
 width="304.000000pt" height="304.000000pt" viewBox="0 0 304.000000 304.000000"
 preserveAspectRatio="xMidYMid meet">
<metadata>
Created by potrace 1.11, written by Peter Selinger 2001-2013
</metadata>
<g transform="translate(0.000000,304.000000) scale(0.100000,-0.100000)"
fill="#000000" stroke="none">
<path d="M1235 2963 c-37 -3 -63 -11 -107 -34 -10 -5 -25 -9 -33 -9 -8 0 -15
-4 -15 -10 0 -5 -8 -10 -18 -10 -10 0 -24 -9 -32 -20 -8 -11 -20 -20 -28 -20
-16 0 -42 -24 -42 -40 0 -6 -7 -18 -15 -27 -8 -8 -13 -19 -10 -24 4 -5 1 -9
-4 -9 -6 0 -11 -9 -11 -20 0 -11 -4 -20 -10 -20 -5 0 -10 -13 -10 -30 0 -16
-4 -30 -10 -30 -5 0 -10 -18 -10 -40 0 -22 -4 -40 -10 -40 -5 0 -10 -22 -10
-49 0 -27 -5 -51 -10 -53 -15 -5 -15 -351 -1 -356 6 -2 11 -17 11 -33 0 -16 5
-29 10 -29 6 0 10 -9 10 -20 0 -11 5 -20 10 -20 6 0 10 -8 10 -18 0 -10 9 -24
20 -32 11 -8 20 -22 20 -32 0 -10 5 -18 10 -18 6 0 10 -8 10 -18 0 -10 9 -24
20 -32 11 -8 20 -22 20 -32 0 -10 5 -18 10 -18 6 0 10 -9 10 -19 0 -11 5 -23
10 -26 6 -3 10 -17 10 -31 0 -13 -4 -24 -10 -24 -5 0 -10 -7 -10 -15 0 -17
-124 -145 -140 -145 -16 0 -105 -92 -124 -127 -9 -18 -21 -33 -26 -33 -6 0
-10 -8 -10 -18 0 -10 -9 -24 -20 -32 -11 -8 -20 -20 -20 -28 0 -17 -25 -43
-34 -35 -3 4 -6 -4 -6 -17 0 -12 -8 -30 -18 -39 -9 -9 -23 -28 -30 -43 -6 -16
-16 -28 -22 -28 -5 0 -10 -9 -10 -20 0 -11 -4 -20 -10 -20 -5 0 -10 -13 -10
-29 0 -16 -5 -31 -11 -33 -6 -2 -10 -49 -9 -128 1 -69 1 -135 1 -147 0 -13 3
-23 8 -23 5 0 9 -35 10 -78 1 -42 6 -78 11 -80 6 -2 10 -17 10 -33 0 -16 4
-38 10 -49 6 -11 15 -29 20 -40 5 -11 10 -29 10 -40 0 -11 5 -20 10 -20 6 0
10 -8 10 -18 0 -10 9 -24 20 -32 11 -8 20 -21 20 -30 0 -9 9 -22 20 -30 11 -8
20 -20 20 -26 0 -17 104 -124 121 -124 8 0 21 -9 29 -20 8 -11 22 -20 32 -20
10 0 18 -4 18 -10 0 -5 23 -10 50 -10 28 0 50 5 50 10 0 6 7 10 15 10 29 0 65
47 65 84 0 19 6 37 13 40 10 5 10 7 0 12 -7 3 -13 17 -13 31 0 28 -21 53 -44
53 -9 0 -16 5 -16 11 0 5 -4 8 -9 5 -5 -3 -14 1 -21 9 -7 8 -21 15 -31 15 -11
0 -19 5 -19 10 0 6 -9 10 -20 10 -11 0 -20 5 -20 10 0 6 -12 10 -26 10 -28 0
-54 21 -54 44 0 8 -4 18 -10 21 -5 3 -10 19 -10 35 0 16 -4 32 -10 35 -5 3
-10 24 -10 46 0 21 -4 39 -9 39 -6 0 -10 60 -10 140 0 81 4 140 10 140 5 0 9
14 9 30 0 17 5 30 10 30 6 0 10 8 10 18 0 10 9 24 20 32 11 8 20 21 20 28 0 8
14 27 30 42 17 15 30 33 30 39 0 6 54 65 120 131 66 66 120 124 120 130 0 15
47 60 62 60 8 0 20 9 28 20 13 18 25 20 92 19 44 -1 78 -6 78 -11 0 -6 9 -8
20 -5 11 3 27 -1 34 -9 8 -8 24 -14 36 -14 24 0 110 -84 110 -107 0 -7 5 -13
10 -13 16 0 12 -57 -4 -63 -9 -4 -12 -14 -9 -28 4 -15 3 -20 -5 -15 -7 4 -12
1 -12 -8 0 -9 -13 -29 -30 -44 -16 -16 -30 -35 -30 -42 0 -6 -13 -25 -30 -40
-16 -15 -30 -34 -30 -42 0 -7 -9 -20 -20 -28 -11 -8 -20 -22 -20 -32 0 -10 -4
-18 -10 -18 -5 0 -10 -13 -10 -30 0 -16 -4 -30 -10 -30 -5 0 -10 -15 -10 -34
0 -19 -5 -38 -10 -41 -5 -3 -10 -30 -10 -59 0 -28 -4 -56 -10 -62 -7 -7 -11
-129 -9 -306 0 -10 4 -20 10 -23 5 -4 9 -26 9 -51 0 -24 5 -44 10 -44 6 0 10
-7 10 -16 0 -31 78 -124 103 -124 7 0 19 -9 27 -20 8 -12 26 -20 42 -20 15 0
28 -4 28 -10 0 -5 13 -10 28 -10 15 0 33 -5 38 -10 6 -6 47 -11 92 -11 45 0
82 -5 82 -10 0 -5 67 -9 155 -9 l155 0 105 105 c58 58 105 110 105 117 0 7 14
24 31 37 17 14 28 30 25 38 -3 8 1 16 9 19 9 4 15 19 15 35 0 16 5 29 10 29 6
0 10 14 10 30 0 17 5 30 10 30 14 0 13 237 0 242 -6 2 -11 25 -12 51 0 26 -5
47 -10 47 -6 0 -8 9 -5 20 3 10 -1 27 -9 37 -7 10 -14 28 -14 41 0 12 -4 22
-8 22 -5 0 -15 18 -22 40 -7 22 -17 40 -22 40 -4 0 -8 9 -8 20 0 11 -4 20 -10
20 -5 0 -10 9 -10 20 0 11 -4 20 -10 20 -5 0 -10 9 -10 20 0 11 -4 20 -10 20
-5 0 -10 9 -10 20 0 11 -4 20 -10 20 -5 0 -10 9 -10 20 0 11 -4 20 -10 20 -5
0 -10 9 -10 20 0 11 -4 20 -10 20 -5 0 -10 23 -10 50 0 28 5 50 10 50 6 0 16
12 23 28 6 15 24 39 40 54 15 15 27 32 27 38 0 6 18 28 40 49 22 21 40 44 40
50 0 7 14 26 30 41 17 15 30 34 30 42 0 7 9 20 20 28 11 8 20 21 20 30 0 9 9
22 20 30 11 8 20 22 20 32 0 10 5 18 10 18 6 0 10 9 10 20 0 11 5 20 10 20 6
0 10 9 10 20 0 11 5 20 10 20 6 0 10 34 10 83 l0 84 -44 46 c-24 26 -51 47
-60 47 -9 0 -16 5 -16 10 0 14 -49 12 -64 -3 -7 -7 -19 -29 -27 -50 -7 -20
-17 -37 -21 -37 -4 0 -8 -8 -8 -18 0 -10 -9 -24 -20 -32 -11 -8 -20 -21 -20
-28 0 -8 -13 -27 -30 -42 -16 -15 -30 -33 -30 -40 0 -15 -25 -40 -41 -40 -7 0
-10 -3 -6 -6 3 -4 -12 -24 -33 -44 -22 -21 -40 -43 -40 -49 0 -17 -92 -106
-106 -103 -6 1 -22 -11 -35 -28 -21 -26 -31 -30 -71 -30 -27 0 -48 3 -48 8 0
8 -49 32 -67 32 -7 0 -20 11 -29 25 -9 14 -20 22 -25 19 -5 -2 -33 20 -64 50
-42 42 -55 63 -55 85 0 16 5 33 10 36 6 3 10 15 10 26 0 10 5 19 10 19 6 0 10
14 10 30 0 17 4 30 9 30 5 0 9 11 9 24 0 14 7 32 16 41 9 9 14 21 11 26 -4 5
-1 9 4 9 6 0 11 9 11 20 0 11 5 20 10 20 6 0 10 14 10 30 0 17 5 30 10 30 6 0
10 9 10 20 0 11 5 20 10 20 6 0 10 14 10 30 0 17 5 30 10 30 6 0 10 9 10 20 0
11 5 20 10 20 6 0 10 9 10 20 0 11 5 20 10 20 6 0 10 13 10 29 0 16 5 31 11
33 10 3 15 125 5 135 -2 2 0 18 4 34 6 21 5 33 -6 43 -8 8 -14 22 -14 30 0 9
-4 16 -10 16 -5 0 -10 9 -10 20 0 11 -4 20 -10 20 -5 0 -10 7 -10 15 0 19
-104 125 -124 125 -9 0 -16 5 -16 10 0 6 -9 10 -20 10 -11 0 -20 5 -20 10 0 6
-9 10 -20 10 -11 0 -20 5 -20 10 0 6 -9 10 -20 10 -11 0 -20 5 -20 10 0 6 -18
10 -40 10 -30 0 -40 4 -40 16 0 8 -5 12 -10 9 -11 -7 -156 -8 -181 -2 -8 2
-32 2 -54 0z m160 -293 c4 -6 15 -10 24 -8 16 3 39 -5 93 -33 10 -5 29 -9 43
-9 14 0 25 -4 25 -10 0 -5 7 -10 16 -10 8 0 22 -7 30 -15 14 -13 14 -17 1 -29
-9 -9 -12 -26 -9 -41 3 -17 0 -30 -9 -35 -8 -5 -12 -23 -11 -44 2 -20 -2 -36
-8 -36 -5 0 -10 -18 -10 -40 0 -22 -4 -40 -10 -40 -5 0 -10 -9 -10 -20 0 -11
-4 -20 -10 -20 -5 0 -10 -13 -10 -30 0 -16 -4 -30 -10 -30 -5 0 -10 -9 -10
-20 0 -11 -4 -20 -10 -20 -5 0 -10 -7 -10 -15 0 -19 -44 -65 -62 -65 -8 0 -20
-9 -28 -20 -8 -11 -22 -20 -32 -20 -10 0 -18 -4 -18 -10 0 -5 -9 -10 -20 -10
-11 0 -20 -4 -20 -10 0 -14 -20 -13 -53 3 -19 8 -26 18 -23 30 2 9 0 17 -5 17
-16 0 -79 68 -79 85 0 8 -4 15 -10 15 -5 0 -10 6 -10 13 0 18 -24 67 -32 67
-5 0 -8 9 -8 20 0 11 -4 20 -10 20 -5 0 -10 13 -10 29 0 16 -4 31 -10 33 -5 2
-10 30 -10 63 0 82 2 95 12 95 4 0 8 9 8 20 0 11 5 20 10 20 6 0 10 9 10 21 0
11 5 17 10 14 6 -3 10 -1 10 5 0 17 26 40 44 40 9 0 16 5 16 10 0 6 9 10 20
10 11 0 20 5 20 10 0 14 167 13 175 0z m565 -1600 c0 -5 7 -10 15 -10 39 0
200 -198 203 -250 0 -14 6 -26 12 -28 5 -2 10 -21 10 -43 0 -21 5 -39 10 -39
6 0 10 -27 10 -60 0 -33 -4 -60 -10 -60 -5 0 -10 -18 -10 -40 0 -22 -3 -40 -7
-40 -8 0 -33 -48 -33 -62 0 -15 -48 -58 -65 -58 -8 0 -15 -4 -15 -10 0 -5 -13
-10 -30 -10 -16 0 -30 -4 -30 -10 0 -6 -33 -10 -80 -10 -47 0 -80 4 -80 10 0
6 -24 10 -54 10 -30 0 -58 4 -61 10 -3 5 -13 10 -22 10 -24 0 -83 69 -83 96 0
13 -4 24 -10 24 -5 0 -10 23 -10 50 0 28 5 50 10 50 6 0 10 23 10 50 0 28 5
50 10 50 6 0 10 11 10 24 0 14 5 28 10 31 6 3 10 19 10 36 0 16 5 29 10 29 6
0 10 9 10 20 0 11 5 20 10 20 6 0 10 7 10 15 0 8 9 24 20 35 11 11 20 26 20
33 0 7 9 18 20 25 11 7 20 19 20 27 0 9 15 31 33 50 27 29 39 34 80 34 26 1
47 -3 47 -9z"/>
</g>
</svg>
