<?xml version="1.0" encoding="UTF-8"?>
<svg width="59px" height="33px" viewBox="0 0 59 33" version="1.1" xmlns="http://www.w3.org/2000/svg" xmlns:xlink="http://www.w3.org/1999/xlink">
    <!-- Generator: Sketch 47.1 (45422) - http://www.bohemiancoding.com/sketch -->
    <title>ON&amp;ON_Secondary_Mark_Blue</title>
    <desc>Created with Sketch.</desc>
    <defs></defs>
    <g id="about-Ready/C" stroke="none" stroke-width="1" fill="none" fill-rule="evenodd">
        <g id="Desktop" transform="translate(-354.000000, -48.000000)" fill-rule="nonzero" fill="#17234B">
            <g id="ON&amp;ON_Secondary_Mark_Blue" transform="translate(354.000000, 48.000000)">
                <path d="M55.3488938,7.96873693 C52.5150973,5.06552299 48.671384,3.40871503 44.8125973,2.23830941 C33.5527782,-1.16650694 20.9966481,-0.832105333 10.3699112,4.24471905 C7.20450027,5.76472635 4.15967639,7.74073584 2.13984272,10.6287497 C0.120009054,13.5015635 -0.709027152,17.4079823 0.707871091,20.6303977 C1.37110006,22.150405 2.50160397,23.4424112 3.7225482,24.5672166 C7.67177522,28.2152342 12.7967263,30.3736445 18.0271911,31.51365 C23.2124357,32.6384554 28.9101755,33.1248577 34.2160072,32.972857 C39.4615454,32.8208563 45.1743585,30.6472458 49.8621814,28.4128351 C50.8268781,27.9568329 51.7915748,27.4552305 52.6356844,26.8168274 C53.2386198,26.3608253 53.7963351,25.8288227 54.3389769,25.2968201 C56.1176364,23.5184116 57.8360024,21.5424021 58.5896717,19.1255905 C59.8106159,15.2343718 58.1826903,10.8719509 55.3488938,7.96873693 Z M44.5864965,18.3351867 C44.4056159,19.9463945 43.9835611,21.1320001 43.4710659,22.5304069 C43.2449652,22.9256088 43.003791,23.3360107 42.7776902,23.7312126 C41.9637274,26.0568238 40.4111687,27.7136318 38.1803076,29.2792393 C37.8939133,29.4768402 37.5622988,29.628841 37.2156109,29.7352415 C37.1854642,29.7504415 37.1553174,29.7656416 37.1100972,29.7808417 C37.0498037,29.8112418 36.9895102,29.841642 36.9141432,29.8720421 C36.8237029,29.9328424 36.7181892,29.9784426 36.6126755,30.0088428 C36.5674554,30.0392429 36.5071618,30.054443 36.4619417,30.0696431 C36.4016481,30.1000432 36.3413546,30.1304434 36.2659876,30.1456434 C36.1906207,30.1912437 36.1001804,30.2216438 36.0097401,30.2368439 C35.6027587,30.4192447 35.1807039,30.5864456 34.7586491,30.7384463 C34.6983555,30.7536464 34.638062,30.7840465 34.5777685,30.7992466 C34.442108,30.8448468 34.3215209,30.8752469 34.1858604,30.9208472 C33.5377049,31.2096485 32.7538888,31.4832499 32.1057332,31.51365 C30.688835,31.6048504 29.1362763,31.7416511 27.7796716,31.6048504 C24.0113252,31.2248486 19.820924,28.7928369 17.4393291,25.7072221 C16.9117606,25.0232188 16.4897058,23.9440137 16.0375042,23.18401 C15.7812567,22.758408 15.7812567,22.1960053 15.4797889,21.9224039 C13.4147351,15.5079731 15.1481745,9.91434628 18.1929984,6.20552846 C18.8110072,5.46072489 19.7907772,5.05032292 20.5595199,4.39671978 C22.715014,2.54231087 26.5888741,0.809502551 29.7542851,1.08310386 C32.0454397,1.28070481 33.7185855,1.70630686 35.4821716,2.55751095 C35.4821716,2.55751095 35.497245,2.55751095 35.5273918,2.57271102 C35.5726119,2.58791109 35.6329055,2.61831124 35.6781256,2.63351131 C35.7233458,2.64871138 35.7685659,2.66391146 35.8137861,2.6943116 C35.889153,2.70951168 35.9645199,2.73991182 36.0398869,2.78551204 C36.085107,2.80071211 36.1454006,2.83111226 36.1906207,2.84631233 C36.2509143,2.86151241 36.2961344,2.89191255 36.356428,2.9223127 C36.4016481,2.93751277 36.4468683,2.96791292 36.4920884,2.98311299 C36.5373086,2.99831306 36.5825287,3.01351314 36.6126755,3.04391328 C36.6126755,3.04391328 36.6277489,3.04391328 36.6277489,3.04391328 C36.6428223,3.04391328 36.6578957,3.05911335 36.6578957,3.05911335 C36.6729691,3.05911335 36.6729691,3.05911335 36.6880424,3.07431343 C36.748336,3.0895135 36.8086295,3.11991365 36.8689231,3.15031379 C36.8839965,3.15031379 36.8990698,3.16551387 36.9292166,3.16551387 C37.0347303,3.18071394 37.1251706,3.22631416 37.2005376,3.27191438 C37.2759045,3.28711445 37.336198,3.3175146 37.3964916,3.34791474 C37.4417117,3.36311481 37.4718585,3.37831489 37.5170786,3.39351496 C37.5773722,3.40871503 37.6225923,3.43911518 37.6678125,3.45431525 C37.6979593,3.46951533 37.7431794,3.4847154 37.7733262,3.49991547 C37.8336197,3.53031562 37.9089867,3.56071576 37.9542068,3.60631598 C37.9692802,3.62151606 37.999427,3.62151606 38.0145004,3.63671613 C38.0747939,3.6519162 38.1350875,3.68231635 38.1803076,3.71271649 C38.2406012,3.74311664 38.3008947,3.77351679 38.3611882,3.80391693 C38.4667019,3.84951715 38.5571423,3.91031744 38.6475826,3.95591766 C40.9085904,5.53672525 42.4460757,7.96873693 43.9383409,11.0695518 C44.1945885,11.6015544 44.3151755,12.77196 44.3453223,13.2735624 C44.4809828,14.0943664 44.6166433,14.9151703 44.7523037,15.7511743 C44.7975239,16.6479786 44.6769368,17.5447829 44.5864965,18.3351867 Z" id="Shape"></path>
                <path d="M35.1820645,15.6527235 C35.8651945,14.8317395 36.4756511,13.9651453 36.8826221,12.946517 C37.2314544,12.0495159 36.7808794,11.1677183 35.8215905,10.9396672 C35.7343824,11.1069047 35.6326396,11.2741422 35.5599662,11.4565831 C35.2838073,12.0343125 34.9640443,12.5816352 34.5425386,13.0529408 C34.1937063,13.4482294 33.8739433,13.8891282 33.525111,14.2692134 C33.2780214,14.5428748 33.0163972,14.7861293 32.7402383,15.0141804 C32.43501,15.2422315 32.071643,15.3334519 31.7373453,15.1510111 C31.1704928,14.8317395 30.6036403,14.4972645 30.1675999,13.9803487 C29.978649,13.7522976 29.9059756,13.5394499 30.0222531,13.2505851 C30.2402733,12.7032625 30.4292241,12.1407364 30.6472443,11.5934137 C30.9670073,10.8028365 31.2867702,9.99705594 31.6065332,9.20647876 C32.0861776,7.97500276 31.5047904,6.59149269 30.5745709,5.87693254 C30.0513224,5.48164395 29.4699352,5.22318602 28.844944,5.11676217 C27.9437938,4.93432128 27.0281089,4.93432128 26.1705628,5.34481328 C25.6473143,5.5880678 25.1967392,5.95294958 24.9641843,6.53067906 C24.4700052,7.74695165 24.2810544,9.02403787 24.295589,10.3467343 C24.295589,11.0917013 24.4845399,11.791058 24.8769762,12.4143977 C25.0804618,12.7336693 25.2839473,13.0681442 25.5019675,13.3874158 C25.9234732,14.0563657 25.8217305,14.4668577 25.3566207,14.9685702 C25.0223231,15.3334519 24.6298867,15.6375201 24.2810544,15.9871985 C24.0775688,16.1848428 23.888618,16.3976905 23.7287365,16.6257416 C23.2200227,17.3859119 22.7258436,18.1612857 22.2316644,18.9518629 C22.1444564,19.0886936 22.1008523,19.2559311 22.071783,19.4231685 C21.9264362,20.41139 22.0281789,21.3844081 22.1444564,22.3574262 C22.3188725,23.695326 22.842121,24.8659884 23.7287365,25.823803 C24.0048954,26.1278712 24.3973318,26.3711257 24.7606988,26.5535666 C25.1531352,26.7360075 25.7926611,26.4471428 25.9089385,26.0366508 C26.0542853,25.5653451 26.0397507,25.1548531 25.4583635,24.8659884 C25.1095311,24.6987509 24.7606988,24.5011066 24.3973318,24.3490725 C24.1357076,24.2426487 24.0048954,24.0906146 23.9467567,23.8169533 C23.8595486,23.3912579 23.7432712,22.9655625 23.6415284,22.5398671 C23.3072308,21.2019672 23.6124591,20.000898 24.4264012,18.9670663 C25.0949965,18.1156755 25.8507998,17.3403017 26.5629992,16.5345211 C27.071713,15.9567916 27.6821695,15.8047576 28.3652995,16.0480121 C28.8013399,16.2000462 29.2664497,16.3216734 29.615282,16.7017586 C30.0077184,17.1426574 30.0803918,17.5227426 29.8042328,18.0396585 C29.6443514,18.3437266 29.4263312,18.6325913 29.2228456,18.9214561 C28.932152,19.3167447 28.6123891,19.7120333 28.4379729,20.1985423 C27.9292591,21.6124592 27.8711204,23.0719863 28.0310019,24.5467168 C28.1327446,25.4741247 28.6269237,26.158278 29.4554005,26.5079564 C29.8333022,26.6751939 30.2693426,26.7664143 30.6763137,26.8120245 C31.432117,26.903245 32.1879204,26.9336518 32.9582585,26.9944654 C33.3361601,27.0248722 33.6704578,26.9336518 33.932082,26.6295836 C34.3535878,26.158278 34.7605588,25.671769 35.1529952,25.1852599 C35.3274113,24.9724122 35.5018275,24.7291577 35.6035703,24.4706998 C35.8797292,23.8169533 35.9960066,23.1327999 35.9233332,22.387833 C35.8215905,21.3387979 35.5599662,20.3657798 35.0803218,19.4383719 C34.8041628,18.9214561 34.571608,18.3741334 34.295449,17.8572176 C34.1355676,17.5531494 34.0774288,17.2490813 34.2809144,16.9602165 C34.5570733,16.5193177 34.8477669,16.0632155 35.1820645,15.6527235 Z M29.2228456,10.894057 C29.0193601,11.3349558 28.6850625,11.5934137 28.3071608,11.8366682 C28.205418,11.9126853 28.0746059,11.9582955 27.9583285,12.0191091 C27.5368227,12.2623636 27.4496147,12.2927705 27.115317,11.9278887 C26.4031177,11.1373115 25.8944039,10.2099036 25.7490571,9.13046172 C25.6037103,8.08142661 26.4031177,6.84995061 27.7693776,7.00198469 C28.5833197,7.09320513 29.3100537,7.45808691 30.1094611,7.77735846 C29.8623716,8.8872072 29.658886,9.92103891 29.2228456,10.894057 Z M34.1646369,23.5889022 C33.9030127,24.5923271 33.3216255,24.9876156 32.158851,24.9572088 C31.8826921,24.926802 31.432117,24.8963952 30.9815419,24.8051748 C30.1966692,24.6379373 29.8187675,24.0145976 29.8769062,23.1784102 C29.9641143,21.7644933 30.5309669,20.5786275 31.3739783,19.514389 C31.6792066,19.1343038 32.0135042,19.0126765 32.43501,19.2711345 C32.7693076,19.4687788 33.0890706,19.7272367 33.3361601,20.0161014 C34.1791716,21.0499331 34.4989346,22.2510023 34.1646369,23.5889022 Z" id="Shape"></path>
                <path d="M55.3488938,7.96873693 C52.5150973,5.06552299 48.671384,3.40871503 44.8125973,2.23830941 C33.5527782,-1.16650694 20.9966481,-0.832105333 10.3699112,4.24471905 C7.20450027,5.76472635 4.15967639,7.74073584 2.13984272,10.6287497 C0.120009054,13.5015635 -0.709027152,17.4079823 0.707871091,20.6303977 C1.37110006,22.150405 2.50160397,23.4424112 3.7225482,24.5672166 C7.67177522,28.2152342 12.7967263,30.3736445 18.0271911,31.51365 C23.2124357,32.6384554 28.9101755,33.1248577 34.2160072,32.972857 C39.4615454,32.8208563 45.1743585,30.6472458 49.8621814,28.4128351 C50.8268781,27.9568329 51.7915748,27.4552305 52.6356844,26.8168274 C53.2386198,26.3608253 53.7963351,25.8288227 54.3389769,25.2968201 C56.1176364,23.5184116 57.8360024,21.5424021 58.5896717,19.1255905 C59.8106159,15.2343718 58.1826903,10.8719509 55.3488938,7.96873693 Z M44.5864965,18.3351867 C44.4056159,19.9463945 43.9835611,21.1320001 43.4710659,22.5304069 C43.2449652,22.9256088 43.003791,23.3360107 42.7776902,23.7312126 C41.9637274,26.0568238 40.4111687,27.7136318 38.1803076,29.2792393 C37.8939133,29.4768402 37.5622988,29.628841 37.2156109,29.7352415 C37.1854642,29.7504415 37.1553174,29.7656416 37.1100972,29.7808417 C37.0498037,29.8112418 36.9895102,29.841642 36.9141432,29.8720421 C36.8237029,29.9328424 36.7181892,29.9784426 36.6126755,30.0088428 C36.5674554,30.0392429 36.5071618,30.054443 36.4619417,30.0696431 C36.4016481,30.1000432 36.3413546,30.1304434 36.2659876,30.1456434 C36.1906207,30.1912437 36.1001804,30.2216438 36.0097401,30.2368439 C35.6027587,30.4192447 35.1807039,30.5864456 34.7586491,30.7384463 C34.6983555,30.7536464 34.638062,30.7840465 34.5777685,30.7992466 C34.442108,30.8448468 34.3215209,30.8752469 34.1858604,30.9208472 C33.5377049,31.2096485 32.7538888,31.4832499 32.1057332,31.51365 C30.688835,31.6048504 29.1362763,31.7416511 27.7796716,31.6048504 C24.0113252,31.2248486 19.820924,28.7928369 17.4393291,25.7072221 C16.9117606,25.0232188 16.4897058,23.9440137 16.0375042,23.18401 C15.7812567,22.758408 15.7812567,22.1960053 15.4797889,21.9224039 C13.4147351,15.5079731 15.1481745,9.91434628 18.1929984,6.20552846 C18.8110072,5.46072489 19.7907772,5.05032292 20.5595199,4.39671978 C22.715014,2.54231087 26.5888741,0.809502551 29.7542851,1.08310386 C32.0454397,1.28070481 33.7185855,1.70630686 35.4821716,2.55751095 C35.4821716,2.55751095 35.497245,2.55751095 35.5273918,2.57271102 C35.5726119,2.58791109 35.6329055,2.61831124 35.6781256,2.63351131 C35.7233458,2.64871138 35.7685659,2.66391146 35.8137861,2.6943116 C35.889153,2.70951168 35.9645199,2.73991182 36.0398869,2.78551204 C36.085107,2.80071211 36.1454006,2.83111226 36.1906207,2.84631233 C36.2509143,2.86151241 36.2961344,2.89191255 36.356428,2.9223127 C36.4016481,2.93751277 36.4468683,2.96791292 36.4920884,2.98311299 C36.5373086,2.99831306 36.5825287,3.01351314 36.6126755,3.04391328 C36.6126755,3.04391328 36.6277489,3.04391328 36.6277489,3.04391328 C36.6428223,3.04391328 36.6578957,3.05911335 36.6578957,3.05911335 C36.6729691,3.05911335 36.6729691,3.05911335 36.6880424,3.07431343 C36.748336,3.0895135 36.8086295,3.11991365 36.8689231,3.15031379 C36.8839965,3.15031379 36.8990698,3.16551387 36.9292166,3.16551387 C37.0347303,3.18071394 37.1251706,3.22631416 37.2005376,3.27191438 C37.2759045,3.28711445 37.336198,3.3175146 37.3964916,3.34791474 C37.4417117,3.36311481 37.4718585,3.37831489 37.5170786,3.39351496 C37.5773722,3.40871503 37.6225923,3.43911518 37.6678125,3.45431525 C37.6979593,3.46951533 37.7431794,3.4847154 37.7733262,3.49991547 C37.8336197,3.53031562 37.9089867,3.56071576 37.9542068,3.60631598 C37.9692802,3.62151606 37.999427,3.62151606 38.0145004,3.63671613 C38.0747939,3.6519162 38.1350875,3.68231635 38.1803076,3.71271649 C38.2406012,3.74311664 38.3008947,3.77351679 38.3611882,3.80391693 C38.4667019,3.84951715 38.5571423,3.91031744 38.6475826,3.95591766 C40.9085904,5.53672525 42.4460757,7.96873693 43.9383409,11.0695518 C44.1945885,11.6015544 44.3151755,12.77196 44.3453223,13.2735624 C44.4809828,14.0943664 44.6166433,14.9151703 44.7523037,15.7511743 C44.7975239,16.6479786 44.6769368,17.5447829 44.5864965,18.3351867 Z" id="Shape"></path>
                <path d="M35.1820645,16.6527235 C35.8651945,15.8317395 36.4756511,14.9651453 36.8826221,13.946517 C37.2314544,13.0495159 36.7808794,12.1677183 35.8215905,11.9396672 C35.7343824,12.1069047 35.6326396,12.2741422 35.5599662,12.4565831 C35.2838073,13.0343125 34.9640443,13.5816352 34.5425386,14.0529408 C34.1937063,14.4482294 33.8739433,14.8891282 33.525111,15.2692134 C33.2780214,15.5428748 33.0163972,15.7861293 32.7402383,16.0141804 C32.43501,16.2422315 32.071643,16.3334519 31.7373453,16.1510111 C31.1704928,15.8317395 30.6036403,15.4972645 30.1675999,14.9803487 C29.978649,14.7522976 29.9059756,14.5394499 30.0222531,14.2505851 C30.2402733,13.7032625 30.4292241,13.1407364 30.6472443,12.5934137 C30.9670073,11.8028365 31.2867702,10.9970559 31.6065332,10.2064788 C32.0861776,8.97500276 31.5047904,7.59149269 30.5745709,6.87693254 C30.0513224,6.48164395 29.4699352,6.22318602 28.844944,6.11676217 C27.9437938,5.93432128 27.0281089,5.93432128 26.1705628,6.34481328 C25.6473143,6.5880678 25.1967392,6.95294958 24.9641843,7.53067906 C24.4700052,8.74695165 24.2810544,10.0240379 24.295589,11.3467343 C24.295589,12.0917013 24.4845399,12.791058 24.8769762,13.4143977 C25.0804618,13.7336693 25.2839473,14.0681442 25.5019675,14.3874158 C25.9234732,15.0563657 25.8217305,15.4668577 25.3566207,15.9685702 C25.0223231,16.3334519 24.6298867,16.6375201 24.2810544,16.9871985 C24.0775688,17.1848428 23.888618,17.3976905 23.7287365,17.6257416 C23.2200227,18.3859119 22.7258436,19.1612857 22.2316644,19.9518629 C22.1444564,20.0886936 22.1008523,20.2559311 22.071783,20.4231685 C21.9264362,21.41139 22.0281789,22.3844081 22.1444564,23.3574262 C22.3188725,24.695326 22.842121,25.8659884 23.7287365,26.823803 C24.0048954,27.1278712 24.3973318,27.3711257 24.7606988,27.5535666 C25.1531352,27.7360075 25.7926611,27.4471428 25.9089385,27.0366508 C26.0542853,26.5653451 26.0397507,26.1548531 25.4583635,25.8659884 C25.1095311,25.6987509 24.7606988,25.5011066 24.3973318,25.3490725 C24.1357076,25.2426487 24.0048954,25.0906146 23.9467567,24.8169533 C23.8595486,24.3912579 23.7432712,23.9655625 23.6415284,23.5398671 C23.3072308,22.2019672 23.6124591,21.000898 24.4264012,19.9670663 C25.0949965,19.1156755 25.8507998,18.3403017 26.5629992,17.5345211 C27.071713,16.9567916 27.6821695,16.8047576 28.3652995,17.0480121 C28.8013399,17.2000462 29.2664497,17.3216734 29.615282,17.7017586 C30.0077184,18.1426574 30.0803918,18.5227426 29.8042328,19.0396585 C29.6443514,19.3437266 29.4263312,19.6325913 29.2228456,19.9214561 C28.932152,20.3167447 28.6123891,20.7120333 28.4379729,21.1985423 C27.9292591,22.6124592 27.8711204,24.0719863 28.0310019,25.5467168 C28.1327446,26.4741247 28.6269237,27.158278 29.4554005,27.5079564 C29.8333022,27.6751939 30.2693426,27.7664143 30.6763137,27.8120245 C31.432117,27.903245 32.1879204,27.9336518 32.9582585,27.9944654 C33.3361601,28.0248722 33.6704578,27.9336518 33.932082,27.6295836 C34.3535878,27.158278 34.7605588,26.671769 35.1529952,26.1852599 C35.3274113,25.9724122 35.5018275,25.7291577 35.6035703,25.4706998 C35.8797292,24.8169533 35.9960066,24.1327999 35.9233332,23.387833 C35.8215905,22.3387979 35.5599662,21.3657798 35.0803218,20.4383719 C34.8041628,19.9214561 34.571608,19.3741334 34.295449,18.8572176 C34.1355676,18.5531494 34.0774288,18.2490813 34.2809144,17.9602165 C34.5570733,17.5193177 34.8477669,17.0632155 35.1820645,16.6527235 Z M29.2228456,11.894057 C29.0193601,12.3349558 28.6850625,12.5934137 28.3071608,12.8366682 C28.205418,12.9126853 28.0746059,12.9582955 27.9583285,13.0191091 C27.5368227,13.2623636 27.4496147,13.2927705 27.115317,12.9278887 C26.4031177,12.1373115 25.8944039,11.2099036 25.7490571,10.1304617 C25.6037103,9.08142661 26.4031177,7.84995061 27.7693776,8.00198469 C28.5833197,8.09320513 29.3100537,8.45808691 30.1094611,8.77735846 C29.8623716,9.8872072 29.658886,10.9210389 29.2228456,11.894057 Z M34.1646369,24.5889022 C33.9030127,25.5923271 33.3216255,25.9876156 32.158851,25.9572088 C31.8826921,25.926802 31.432117,25.8963952 30.9815419,25.8051748 C30.1966692,25.6379373 29.8187675,25.0145976 29.8769062,24.1784102 C29.9641143,22.7644933 30.5309669,21.5786275 31.3739783,20.514389 C31.6792066,20.1343038 32.0135042,20.0126765 32.43501,20.2711345 C32.7693076,20.4687788 33.0890706,20.7272367 33.3361601,21.0161014 C34.1791716,22.0499331 34.4989346,23.2510023 34.1646369,24.5889022 Z" id="Shape"></path>
            </g>
        </g>
    </g>
</svg>