<?xml version="1.0" encoding="utf-8"?>
<!-- Generator: Adobe Illustrator 21.1.0, SVG Export Plug-In . SVG Version: 6.00 Build 0)  -->
<svg version="1.1" id="Layer_1" xmlns="http://www.w3.org/2000/svg" xmlns:xlink="http://www.w3.org/1999/xlink" x="0px" y="0px"
	 viewBox="0 0 566.9 566.9" style="enable-background:new 0 0 566.9 566.9;" xml:space="preserve">
<style type="text/css">
	.st0{fill:#17234B;}
</style>
<path class="st0" d="M454.1,227.4c-18.8-19.1-44.3-30-69.9-37.7c-74.7-22.4-158-20.2-228.5,13.2c-21,10-41.2,23-54.6,42
	c-13.4,18.9-18.9,44.6-9.5,65.8c4.4,10,11.9,18.5,20,25.9c26.2,24,60.2,38.2,94.9,45.7c34.4,7.4,72.2,10.6,107.4,9.6
	c34.8-1,72.7-15.3,103.8-30c6.4-3,12.8-6.3,18.4-10.5c4-3,7.7-6.5,11.3-10c11.8-11.7,23.2-24.7,28.2-40.6
	C483.7,275.2,472.9,246.5,454.1,227.4z M382.7,295.6c-1.2,10.6-4,18.4-7.4,27.6c-1.5,2.6-3.1,5.3-4.6,7.9
	c-5.4,15.3-15.7,26.2-30.5,36.5c-1.9,1.3-4.1,2.3-6.4,3c-0.2,0.1-0.4,0.2-0.7,0.3c-0.4,0.2-0.8,0.4-1.3,0.6c-0.6,0.4-1.3,0.7-2,0.9
	c-0.3,0.2-0.7,0.3-1,0.4c-0.4,0.2-0.8,0.4-1.3,0.5c-0.5,0.3-1.1,0.5-1.7,0.6c-2.7,1.2-5.5,2.3-8.3,3.3c-0.4,0.1-0.8,0.3-1.2,0.4
	c-0.9,0.3-1.7,0.5-2.6,0.8c-4.3,1.9-9.5,3.7-13.8,3.9c-9.4,0.6-19.7,1.5-28.7,0.6c-25-2.5-52.8-18.5-68.6-38.8
	c-3.5-4.5-6.3-11.6-9.3-16.6c-1.7-2.8-1.7-6.5-3.7-8.3c-13.7-42.2-2.2-79,18-103.4c4.1-4.9,10.6-7.6,15.7-11.9
	c14.3-12.2,40-23.6,61-21.8c15.2,1.3,26.3,4.1,38,9.7c0,0,0.1,0,0.3,0.1c0.3,0.1,0.7,0.3,1,0.4c0.3,0.1,0.6,0.2,0.9,0.4
	c0.5,0.1,1,0.3,1.5,0.6c0.3,0.1,0.7,0.3,1,0.4c0.4,0.1,0.7,0.3,1.1,0.5c0.3,0.1,0.6,0.3,0.9,0.4c0.3,0.1,0.6,0.2,0.8,0.4
	c0,0,0.1,0,0.1,0c0.1,0,0.2,0.1,0.2,0.1c0.1,0,0.1,0,0.2,0.1c0.4,0.1,0.8,0.3,1.2,0.5c0.1,0,0.2,0.1,0.4,0.1
	c0.7,0.1,1.3,0.4,1.8,0.7c0.5,0.1,0.9,0.3,1.3,0.5c0.3,0.1,0.5,0.2,0.8,0.3c0.4,0.1,0.7,0.3,1,0.4c0.2,0.1,0.5,0.2,0.7,0.3
	c0.4,0.2,0.9,0.4,1.2,0.7c0.1,0.1,0.3,0.1,0.4,0.2c0.4,0.1,0.8,0.3,1.1,0.5c0.4,0.2,0.8,0.4,1.2,0.6c0.7,0.3,1.3,0.7,1.9,1
	c15,10.4,25.2,26.4,35.1,46.8c1.7,3.5,2.5,11.2,2.7,14.5c0.9,5.4,1.8,10.8,2.7,16.3C384.1,284.5,383.3,290.4,382.7,295.6z"/>
<path class="st0" d="M325.3,280.2c4.7-5.4,8.9-11.1,11.7-17.8c2.4-5.9-0.7-11.7-7.3-13.2c-0.6,1.1-1.3,2.2-1.8,3.4
	c-1.9,3.8-4.1,7.4-7,10.5c-2.4,2.6-4.6,5.5-7,8c-1.7,1.8-3.5,3.4-5.4,4.9c-2.1,1.5-4.6,2.1-6.9,0.9c-3.9-2.1-7.8-4.3-10.8-7.7
	c-1.3-1.5-1.8-2.9-1-4.8c1.5-3.6,2.8-7.3,4.3-10.9c2.2-5.2,4.4-10.5,6.6-15.7c3.3-8.1-0.7-17.2-7.1-21.9c-3.6-2.6-7.6-4.3-11.9-5
	c-6.2-1.2-12.5-1.2-18.4,1.5c-3.6,1.6-6.7,4-8.3,7.8c-3.4,8-4.7,16.4-4.6,25.1c0,4.9,1.3,9.5,4,13.6c1.4,2.1,2.8,4.3,4.3,6.4
	c2.9,4.4,2.2,7.1-1,10.4c-2.3,2.4-5,4.4-7.4,6.7c-1.4,1.3-2.7,2.7-3.8,4.2c-3.5,5-6.9,10.1-10.3,15.3c-0.6,0.9-0.9,2-1.1,3.1
	c-1,6.5-0.3,12.9,0.5,19.3c1.2,8.8,4.8,16.5,10.9,22.8c1.9,2,4.6,3.6,7.1,4.8c2.7,1.2,7.1-0.7,7.9-3.4c1-3.1,0.9-5.8-3.1-7.7
	c-2.4-1.1-4.8-2.4-7.3-3.4c-1.8-0.7-2.7-1.7-3.1-3.5c-0.6-2.8-1.4-5.6-2.1-8.4c-2.3-8.8-0.2-16.7,5.4-23.5c4.6-5.6,9.8-10.7,14.7-16
	c3.5-3.8,7.7-4.8,12.4-3.2c3,1,6.2,1.8,8.6,4.3c2.7,2.9,3.2,5.4,1.3,8.8c-1.1,2-2.6,3.9-4,5.8c-2,2.6-4.2,5.2-5.4,8.4
	c-3.5,9.3-3.9,18.9-2.8,28.6c0.7,6.1,4.1,10.6,9.8,12.9c2.6,1.1,5.6,1.7,8.4,2c5.2,0.6,10.4,0.8,15.7,1.2c2.6,0.2,4.9-0.4,6.7-2.4
	c2.9-3.1,5.7-6.3,8.4-9.5c1.2-1.4,2.4-3,3.1-4.7c1.9-4.3,2.7-8.8,2.2-13.7c-0.7-6.9-2.5-13.3-5.8-19.4c-1.9-3.4-3.5-7-5.4-10.4
	c-1.1-2-1.5-4-0.1-5.9C321,285.9,323,282.9,325.3,280.2z M284.3,248.9c-1.4,2.9-3.7,4.6-6.3,6.2c-0.7,0.5-1.6,0.8-2.4,1.2
	c-2.9,1.6-3.5,1.8-5.8-0.6c-4.9-5.2-8.4-11.3-9.4-18.4c-1-6.9,4.5-15,13.9-14c5.6,0.6,10.6,3,16.1,5.1
	C288.7,235.7,287.3,242.5,284.3,248.9z M318.3,332.4c-1.8,6.6-5.8,9.2-13.8,9c-1.9-0.2-5-0.4-8.1-1c-5.4-1.1-8-5.2-7.6-10.7
	c0.6-9.3,4.5-17.1,10.3-24.1c2.1-2.5,4.4-3.3,7.3-1.6c2.3,1.3,4.5,3,6.2,4.9C318.4,315.7,320.6,323.6,318.3,332.4z"/>
</svg>
