<?xml version="1.0" encoding="utf-8"?>
<!-- Generator: Adobe Illustrator 21.1.0, SVG Export Plug-In . SVG Version: 6.00 Build 0)  -->
<svg version="1.1" id="Layer_1" xmlns="http://www.w3.org/2000/svg" xmlns:xlink="http://www.w3.org/1999/xlink" x="0px" y="0px"
	 viewBox="0 0 432 306" style="enable-background:new 0 0 432 306;" xml:space="preserve">
<style type="text/css">
	.st0{fill:#1E274F;}
	.st1{font-family:'Courier-Bold';}
	.st2{font-size:20px;}
	.st3{letter-spacing:28;}
</style>
<path class="st0" d="M313.3,133.8c-0.5,0.7-0.3,1.2-0.3,1.8c0,3.3,0,6.5,0,9.8c0,4.8-0.2,9.6-0.2,14.4c0,3.3-1,4.3-4.5,4.5
	c-2,0-4,0-6,0c-1.7,0-1.8-0.3-2.3-2c-0.2-0.8-0.2-1.5-0.2-2.3c0.3-12.4,0.2-24.7,0.3-37.1c0-1.8-0.2-3.6-0.3-5.5
	c-0.3-3.5,1.2-5.6,4.6-6.1c5.5-0.8,9.6,1.5,12.4,6c4.5,7.1,9.3,13.9,13.9,20.9c0.5,0.7,0.8,1.3,1.8,1.7c0.2-1.7,0.3-3.2,0.3-4.8
	c0.2-3.6,0.2-7.3,0.2-10.9c0-3,0.2-5.8,0.2-8.8c0.2-2.5,1-3.5,3.3-4c1.8-0.3,3.5-0.5,5.3-0.7c3.2-0.2,3.8,0.5,3.8,3.5
	c0,2.5,0,5,0,7.6c0,12.3,0,24.7,0,37c0,4.8-1.8,5.8-6.1,5.6c-4.6-0.2-8.3-2.7-10.4-6.6c-4.6-8.1-10.6-15.3-15.3-23.4
	C314.1,134.3,313.9,133.8,313.3,133.8z"/>
<path class="st0" d="M271.1,108.4c6.5-0.3,12.3,1.3,17.1,5.5c4.1,3.5,6.6,8.3,8.3,13.3c3.5,10.9,1.7,21.1-5.8,30
	c-4.5,5.3-10.4,8.1-17.4,8.3c-5.8,0.2-11.1-1.2-16.1-4.1c-4.8-3-8-7.6-9.5-12.9c-2.8-9.3-2-18.4,1.7-27.4
	c3.3-8.1,9.8-11.9,18.4-12.6C269,108.4,270.1,108.4,271.1,108.4z M270.3,154.4c0.8,0.2,2.2-0.2,3.3-0.5c5.5-1.3,9.5-5.6,10.3-11.1
	c0.3-2.3,0.2-4.6-0.2-7c-0.3-3.3-1.2-6.3-3.2-9.1c-2.5-3.5-5.8-5.6-10.3-5c-4.6,0.7-8.3,2.7-10.3,7c-2.8,6.1-2.5,12.3-0.2,18.6
	C261.9,152,265,154.2,270.3,154.4z"/>
<path class="st0" d="M153.6,132.1c-1.2,0.2-0.8,0.8-0.8,1.5c0,3,0,6.1,0,9.1c0.2,5.6-0.3,11.4-0.8,17.1c-0.2,2.2-1.2,3-3.3,3
	c-2,0-3.8-0.3-5.6-0.8c-1.5-0.3-2.2-1-2.3-2.5c0-0.3,0-0.8,0-1.2c0-14.8,0.2-29.3,0.2-44.1c0-3.3,1.7-4.5,4.1-4.3c1.3,0,2.7,0,4,0
	c2.7-0.2,4.5,1,5.8,3.2c2.3,3.6,4.6,7.3,7.1,10.9c3.2,4.8,6.1,9.8,9.3,14.6c0.5,0.8,1,1.8,2.2,2c0.5-0.7,0.3-1.5,0.3-2.2
	c0-8.1,0-16.2,0-24.4c0-0.5,0-1,0.2-1.7c0.3-1.8,1.2-2.5,3-2.5c2,0,4,0,6,0c2.3,0,3,0.7,3,3c0,7,0,14.1,0,21.1
	c0,5-0.2,10.1,0.2,15.1c0.2,2.5,0.5,5,0.7,7.5c0.2,1,0.2,2.2,0.2,3.2c0,1.8-0.7,2.7-2.5,2.7c-1.5,0-2.8,0.2-4.3,0.3
	c-4.5,0.5-7.8-1.5-10.1-5.3c-4.6-7.6-9.5-15.3-14.1-22.7C154.9,133.6,154.4,132.6,153.6,132.1z"/>
<path class="st0" d="M112.5,108.4c3.6-0.2,7.5,0.3,10.9,1.8c4.8,2.2,8.3,5.6,10.6,10.3c4.1,8.3,5.1,16.9,2.5,25.9
	c-3.2,10.4-13.3,17.1-23.2,17.4c-4,0.2-8-0.5-11.8-1.7c-3.5-1-6.3-2.7-8.3-5.8c-2.8-4.1-5.5-8.3-6.3-13.4c-1.5-9.1-0.8-17.7,5-25.4
	c4.8-6.3,11.1-9.3,19.1-9.5C111.3,108.4,111.8,108.4,112.5,108.4z M125.4,135.9c0.2-1.2-0.2-2.8-0.3-4.3
	c-0.7-6.8-5.8-10.8-11.4-12.3c-5.3-1.3-12.1,3-13.6,7.8c-1,3.5-2.2,6.8-1.5,10.6c0.5,3.5,1.2,7,3.8,9.6c1.7,1.7,3.3,3,5.1,4.3
	c4.6,3.3,10.3,2.5,13.8-2.2C124.2,145.6,125.4,141.1,125.4,135.9z"/>
<path class="st0" d="M233.3,124c2.8,1,3.5,2.7,2.3,5c-1,2.3-2.5,4.1-4,6.1c-0.7,0.8-1.3,1.8-2,2.7c-0.8,1-0.7,1.8-0.2,3
	c1.5,2.8,3,5.5,3.6,8.5c0.8,3.6,0.2,6.6-2.2,9.6c-2.3,3-5,4-8.6,3.2c-1.3-0.3-3-0.2-4.3-0.7c-2.5-0.8-4-2.5-4.3-5.1
	c-0.2-2.3-0.2-4.5,0-6.8c0.3-2.7,1.5-4.8,3.2-7c2.5-3.2,1.8-5.3-2.2-6.5c-2.2-0.7-3.8-0.3-5.3,1.5s-3.3,3.5-4.8,5.3
	c-2.3,2.7-3.2,5.6-2.2,9.1c0,0.2,0,0.3,0,0.3c0.3,2.3,1.2,4.3,3.8,5c0.3,0,0.7,0.3,0.8,0.5c1,0.7,1.3,1.7,0.8,2.7
	c-0.5,0.8-1.8,1.3-2.8,1c-1.3-0.5-2.5-1.5-3.3-2.7c-2.2-2.7-3.2-5.8-3.3-9.1c-0.2-1.5,0-3,0-4.3c0-0.7,0-1.2,0.3-1.7
	c2-2.8,3.6-6,6.5-8.3c3.3-2.8,3.3-3.3,0.8-6.6c-2.5-3.5-2.3-7.1-1.5-11.1c0.2-0.7,0.3-1.3,0.5-2c0.8-3.5,2.5-5.3,7.1-5.6
	c2.5-0.2,4.8,0.3,7,1.7c2.7,1.7,4.6,5.1,2.8,8.8c-1.3,2.8-2.3,5.8-3.5,8.6c-0.7,1.5-0.5,2,0.8,3.2c0.7,0.5,1.3,1,2,1.3
	c2.5,1.5,3.3,1.5,5.3-0.7C229.5,130,232,127.3,233.3,124z M218.4,152.9c0,3,1,4.1,3.3,4.5c0.8,0.2,1.8,0.3,2.8,0.3
	c2.2,0.2,3.8-0.8,4.5-2.5c2-4.6-0.5-9.3-4-11.3c-1.2-0.7-2.2-0.5-2.8,0.3C220.1,146.7,218.6,149.7,218.4,152.9z M219.1,116
	c-1.8-0.8-3.5-1.5-5.1-1.8c-3.8-0.8-6.6,2-5.8,5.8c0.3,1.5,0.8,2.8,1.8,4.1c2.2,3.3,4.6,3.2,6.8-0.2c0.2-0.3,0.3-0.5,0.5-0.8
	C218.1,121,218.6,118.7,219.1,116z"/>
<text transform="matrix(1 0 0 1 93.978 193.3003)" class="st0 st1 st2 st3">hanalei</text>
</svg>
