<?xml version="1.0" encoding="utf-8"?>
<!-- Generator: Adobe Illustrator 21.1.0, SVG Export Plug-In . SVG Version: 6.00 Build 0)  -->
<svg version="1.1" id="Layer_1" xmlns="http://www.w3.org/2000/svg" xmlns:xlink="http://www.w3.org/1999/xlink" x="0px" y="0px"
	 viewBox="0 0 147.6 36" style="enable-background:new 0 0 147.6 36;" xml:space="preserve">
<style type="text/css">
	.st0{fill:#1E274F;}
</style>
<path class="st0" d="M123.2,16.6c-0.3,0.3-0.2,0.6-0.2,0.9c0,1.7,0,3.3,0,5.1c0,2.5-0.1,5-0.1,7.5c0,1.7-0.5,2.2-2.3,2.3
	c-1,0-2.1,0-3.1,0c-0.9,0-0.9-0.2-1.2-1c-0.1-0.4-0.1-0.8-0.1-1.2c0.2-6.4,0.1-12.8,0.2-19.2c0-0.9-0.1-1.9-0.2-2.8
	c-0.2-1.8,0.6-2.9,2.4-3.2c2.8-0.4,5,0.8,6.4,3.1c2.3,3.7,4.8,7.2,7.2,10.8c0.3,0.3,0.4,0.7,0.9,0.9c0.1-0.9,0.2-1.6,0.2-2.5
	c0.1-1.9,0.1-3.8,0.1-5.7c0-1.5,0.1-3,0.1-4.5c0.1-1.3,0.5-1.8,1.7-2.1c0.9-0.2,1.8-0.3,2.7-0.3c1.6-0.1,2,0.3,2,1.8
	c0,1.3,0,2.6,0,3.9c0,6.3,0,12.8,0,19.1c0,2.5-0.9,3-3.2,2.9c-2.4-0.1-4.3-1.4-5.4-3.4c-2.4-4.2-5.5-7.9-7.9-12.1
	C123.7,16.9,123.6,16.6,123.2,16.6z"/>
<path class="st0" d="M101.5,3.5c3.3-0.2,6.3,0.7,8.8,2.8c2.1,1.8,3.4,4.3,4.3,6.9c1.8,5.7,0.9,10.9-3,15.5c-2.3,2.7-5.4,4.2-9,4.3
	c-3,0.1-5.7-0.6-8.3-2.1c-2.5-1.5-4.1-3.9-4.9-6.7c-1.5-4.8-1-9.5,0.9-14.1c1.7-4.2,5.1-6.2,9.5-6.5C100.4,3.5,101,3.5,101.5,3.5z
	 M101.1,27.2c0.4,0.1,1.1-0.1,1.7-0.3c2.8-0.7,4.9-2.9,5.3-5.7c0.2-1.2,0.1-2.4-0.1-3.6c-0.2-1.7-0.6-3.3-1.6-4.7
	c-1.3-1.8-3-2.9-5.3-2.6c-2.4,0.3-4.3,1.4-5.3,3.6c-1.5,3.2-1.3,6.3-0.1,9.6C96.7,26,98.3,27.1,101.1,27.2z"/>
<path class="st0" d="M40.8,15.7c-0.6,0.1-0.4,0.4-0.4,0.8c0,1.5,0,3.2,0,4.7c0.1,2.9-0.2,5.9-0.4,8.8c-0.1,1.1-0.6,1.5-1.7,1.5
	c-1,0-2-0.2-2.9-0.4c-0.8-0.2-1.1-0.5-1.2-1.3c0-0.2,0-0.4,0-0.6c0-7.6,0.1-15.2,0.1-22.8c0-1.7,0.9-2.3,2.1-2.2c0.7,0,1.4,0,2.1,0
	c1.4-0.1,2.3,0.5,3,1.6c1.2,1.9,2.4,3.8,3.7,5.7c1.6,2.5,3.2,5.1,4.8,7.5c0.3,0.4,0.5,0.9,1.1,1c0.3-0.3,0.2-0.8,0.2-1.1
	c0-4.2,0-8.4,0-12.6c0-0.3,0-0.5,0.1-0.9c0.2-0.9,0.6-1.3,1.5-1.3c1,0,2.1,0,3.1,0c1.2,0,1.5,0.3,1.5,1.5c0,3.6,0,7.3,0,10.9
	c0,2.6-0.1,5.2,0.1,7.8c0.1,1.3,0.3,2.6,0.3,3.9c0.1,0.5,0.1,1.1,0.1,1.6c0,0.9-0.3,1.4-1.3,1.4c-0.8,0-1.5,0.1-2.2,0.2
	c-2.3,0.3-4-0.8-5.2-2.7c-2.4-3.9-4.9-7.9-7.3-11.7C41.4,16.5,41.2,16,40.8,15.7z"/>
<path class="st0" d="M19.5,3.5c1.9-0.1,3.9,0.2,5.7,0.9c2.5,1.1,4.3,2.9,5.5,5.3c2.1,4.3,2.7,8.7,1.3,13.4c-1.6,5.4-6.9,8.8-12,9
	c-2.1,0.1-4.1-0.3-6.1-0.9c-1.8-0.5-3.3-1.4-4.3-3c-1.5-2.1-2.8-4.3-3.3-6.9c-0.8-4.7-0.4-9.2,2.6-13.1c2.5-3.3,5.7-4.8,9.9-4.9
	C18.9,3.5,19.2,3.5,19.5,3.5z M26.2,17.7c0.1-0.6-0.1-1.5-0.2-2.2c-0.3-3.5-3-5.6-5.9-6.3c-2.7-0.7-6.3,1.5-7,4
	c-0.5,1.8-1.1,3.5-0.8,5.5c0.3,1.8,0.6,3.6,2,5c0.9,0.9,1.7,1.5,2.7,2.2c2.4,1.7,5.3,1.3,7.1-1.1C25.6,22.7,26.2,20.4,26.2,17.7z"/>
<path class="st0" d="M82,11.6c1.5,0.5,1.8,1.4,1.2,2.6c-0.5,1.2-1.3,2.1-2.1,3.2c-0.3,0.4-0.7,0.9-1,1.4c-0.4,0.5-0.3,0.9-0.1,1.5
	c0.8,1.5,1.5,2.8,1.9,4.4c0.4,1.9,0.1,3.4-1.1,5c-1.2,1.5-2.6,2.1-4.5,1.6c-0.7-0.2-1.5-0.1-2.2-0.3c-1.3-0.4-2.1-1.3-2.2-2.7
	c-0.1-1.2-0.1-2.3,0-3.5c0.2-1.4,0.8-2.5,1.6-3.6c1.3-1.6,0.9-2.7-1.1-3.3c-1.1-0.3-2-0.2-2.7,0.8s-1.7,1.8-2.5,2.7
	c-1.2,1.4-1.6,2.9-1.1,4.7c0,0.1,0,0.2,0,0.2c0.2,1.2,0.6,2.2,2,2.6c0.2,0,0.3,0.2,0.4,0.3c0.5,0.3,0.7,0.9,0.4,1.4
	c-0.3,0.4-0.9,0.7-1.5,0.5c-0.7-0.3-1.3-0.8-1.7-1.4c-1.1-1.4-1.6-3-1.7-4.7c-0.1-0.8,0-1.5,0-2.2c0-0.3,0-0.6,0.2-0.9
	c1-1.5,1.9-3.1,3.3-4.3c1.7-1.5,1.7-1.7,0.4-3.4c-1.3-1.8-1.2-3.7-0.8-5.7c0.1-0.3,0.2-0.7,0.3-1c0.4-1.8,1.3-2.7,3.7-2.9
	c1.3-0.1,2.5,0.2,3.6,0.9C76,6,77.1,7.8,76.1,9.7c-0.7,1.5-1.2,3-1.8,4.5c-0.3,0.8-0.3,1,0.4,1.6c0.3,0.3,0.7,0.5,1,0.7
	c1.3,0.8,1.7,0.8,2.7-0.3C80,14.6,81.3,13.3,82,11.6z M74.2,26.5c0,1.5,0.5,2.1,1.7,2.3c0.4,0.1,0.9,0.2,1.5,0.2
	c1.1,0.1,2-0.4,2.3-1.3c1-2.4-0.3-4.8-2.1-5.8c-0.6-0.3-1.1-0.3-1.5,0.2C75.1,23.3,74.3,24.8,74.2,26.5z M74.6,7.4
	c-0.9-0.4-1.8-0.8-2.7-0.9c-2-0.4-3.4,1-3,3c0.2,0.8,0.4,1.5,0.9,2.1c1.1,1.7,2.4,1.6,3.5-0.1c0.1-0.2,0.2-0.3,0.3-0.4
	C74.1,10,74.3,8.8,74.6,7.4z"/>
</svg>
